<svg width="34" height="34" viewBox="0 0 34 34" fill="none" xmlns="http://www.w3.org/2000/svg">
<path d="M34 17C34 26.3888 26.3888 34 17 34C7.61116 34 0 26.3888 0 17C0 7.61116 7.61116 0 17 0C26.3888 0 34 7.61116 34 17Z" fill="#F1F9FF"/>
<path fill-rule="evenodd" clip-rule="evenodd" d="M17 33.2C25.947 33.2 33.2 25.947 33.2 17C33.2 8.05299 25.947 0.8 17 0.8C8.05299 0.8 0.8 8.05299 0.8 17C0.8 25.947 8.05299 33.2 17 33.2ZM17 34C26.3888 34 34 26.3888 34 17C34 7.61116 26.3888 0 17 0C7.61116 0 0 7.61116 0 17C0 26.3888 7.61116 34 17 34Z" fill="#009EF6"/>
<path d="M25.9997 10.2054C25.9997 14.675 25.9997 19.1446 25.9997 23.6179C25.9813 23.7136 25.9665 23.8094 25.9481 23.9051C25.7015 25.179 24.6816 26 23.3341 26C19.1075 26.0037 14.8845 26.0037 10.6579 25.9963C10.4075 25.9963 10.1535 25.9705 9.91419 25.9116C8.7618 25.6245 8.00336 24.623 7.99968 23.397C7.99968 20.47 7.99968 17.5504 7.99968 14.6271C7.99968 13.2796 7.996 11.9321 7.99968 10.5846C8.00705 9.50583 8.61453 8.5854 9.58651 8.19881C9.82951 8.10677 10.0946 8.06627 10.3449 8C14.8035 8 19.2621 8 23.7207 8C23.7686 8.01105 23.8127 8.02945 23.8606 8.03314C24.8363 8.15463 25.6499 8.85048 25.904 9.793C25.9445 9.92923 25.9665 10.0691 25.9997 10.2054ZM14.2476 19.4465C15.2269 19.4465 16.2063 19.4502 17.1856 19.4465C17.7747 19.4428 18.1539 18.9863 18.0177 18.423C17.7084 17.1491 16.8948 16.3097 15.7019 15.8163C15.6135 15.7795 15.4846 15.7869 15.3889 15.8163C14.6268 16.0409 13.872 16.0409 13.1099 15.8163C13.0216 15.7905 12.9038 15.7869 12.8154 15.82C11.6483 16.2765 10.8898 17.116 10.5069 18.3089C10.3265 18.8758 10.6763 19.4723 11.3648 19.4539C12.322 19.4281 13.2867 19.4465 14.2476 19.4465ZM14.2476 14.4762C15.411 14.4762 16.3646 13.5336 16.3572 12.3849C16.3499 11.2031 15.4221 10.2716 14.2513 10.2716C13.1247 10.2716 12.149 11.2399 12.1453 12.3629C12.1416 13.5373 13.0768 14.4762 14.2476 14.4762ZM21.6994 13.7288C22.1817 13.7288 22.6677 13.7288 23.15 13.7288C23.6176 13.7251 23.9526 13.4121 23.9526 12.9814C23.9526 12.5433 23.625 12.2266 23.1574 12.2266C22.1891 12.2266 21.2245 12.2266 20.2562 12.2266C19.818 12.2266 19.4462 12.5727 19.4462 12.9814C19.4462 13.4121 19.7812 13.7288 20.2488 13.7325C20.7311 13.7288 21.2134 13.7288 21.6994 13.7288ZM21.7215 15.2346C21.2245 15.2346 20.7311 15.2346 20.2341 15.2346C19.7776 15.2346 19.4462 15.5476 19.4462 15.9746C19.4462 16.3759 19.807 16.7368 20.2341 16.7368C21.2134 16.7404 22.1928 16.7404 23.1721 16.7368C23.5955 16.7331 23.9526 16.3759 23.9526 15.9673C23.9526 15.5144 23.6581 15.2346 23.1758 15.2346C22.6898 15.2346 22.2075 15.2346 21.7215 15.2346ZM22.2443 21.6298C22.1228 21.6298 22.0565 21.6298 21.9903 21.6298C21.5485 21.6335 21.1766 21.9759 21.1766 22.3809C21.1766 22.7858 21.5485 23.1282 21.9903 23.1319C22.1449 23.1319 22.2959 23.1356 22.4505 23.1319C22.7855 23.1246 23.058 22.9221 23.1611 22.6202C23.2605 22.3256 23.1574 22.02 22.8997 21.8028C22.6898 21.6261 22.4468 21.6151 22.2443 21.6298ZM15.3632 21.6224C15.3632 21.6261 15.3632 21.6261 15.3632 21.6298C15.2711 21.6298 15.1791 21.6261 15.087 21.6298C14.7004 21.6408 14.3396 21.9906 14.3249 22.3624C14.3102 22.7269 14.671 23.1098 15.0539 23.1319C15.2417 23.143 15.4331 23.143 15.6246 23.1319C15.989 23.1135 16.3241 22.7858 16.3535 22.425C16.3867 22.0679 16.129 21.7181 15.7645 21.6482C15.6319 21.6224 15.4957 21.6298 15.3632 21.6224ZM18.7872 21.6298C18.6509 21.6298 18.5589 21.6261 18.4669 21.6298C18.0803 21.6408 17.7195 21.998 17.7121 22.3698C17.7047 22.738 18.0619 23.1135 18.4448 23.1319C18.6399 23.143 18.8387 23.143 19.0338 23.1319C19.3468 23.1098 19.5714 22.9442 19.6892 22.6496C19.807 22.3551 19.726 22.0974 19.5161 21.8765C19.3026 21.6482 19.0338 21.6003 18.7872 21.6298ZM11.9281 21.6298C11.7919 21.6298 11.7072 21.6261 11.6225 21.6298C11.2359 21.6408 10.8751 21.9943 10.8641 22.3661C10.8567 22.7343 11.2102 23.1098 11.5967 23.1282C11.7845 23.1393 11.976 23.1356 12.1674 23.1282C12.4693 23.1135 12.7565 22.8816 12.8596 22.5797C12.9479 22.3146 12.8485 22.02 12.6055 21.8102C12.392 21.6261 12.138 21.6151 11.9281 21.6298Z" fill="#009EF6"/>
</svg>
